<svg xmlns="http://www.w3.org/2000/svg" width="119" height="119" viewBox="0 0 119 119" fill="none"><path d="M59.3859 117.772C91.6316 117.772 117.772 91.6316 117.772 59.3859C117.772 27.1403 91.6316 1 59.3859 1C27.1403 1 1 27.1403 1 59.3859C1 91.6316 27.1403 117.772 59.3859 117.772Z" fill="#75AF70" stroke="#161511" stroke-width="2" stroke-miterlimit="10"></path><path d="M59.3857 1.26758V13.1896" stroke="#161511" stroke-width="2" stroke-miterlimit="10"></path><path d="M30.3262 9.05469L36.2872 19.3782" stroke="#161511" stroke-width="2" stroke-miterlimit="10"></path><path d="M9.05469 30.3262L19.3782 36.2872" stroke="#161511" stroke-width="2" stroke-miterlimit="10"></path><path d="M1.2666 59.3867H13.1886" stroke="#161511" stroke-width="2" stroke-miterlimit="10"></path><path d="M9.05469 88.4415L19.3782 82.4805" stroke="#161511" stroke-width="2" stroke-miterlimit="10"></path><path d="M30.3262 109.714L36.2872 99.3907" stroke="#161511" stroke-width="2" stroke-miterlimit="10"></path><path d="M59.3857 117.502V105.58" stroke="#161511" stroke-width="2" stroke-miterlimit="10"></path><path d="M88.4424 109.714L82.4814 99.3907" stroke="#161511" stroke-width="2" stroke-miterlimit="10"></path><path d="M109.714 88.4415L99.3906 82.4805" stroke="#161511" stroke-width="2" stroke-miterlimit="10"></path><path d="M117.502 59.3867H105.58" stroke="#161511" stroke-width="2" stroke-miterlimit="10"></path><path d="M109.714 30.3262L99.3906 36.2872" stroke="#161511" stroke-width="2" stroke-miterlimit="10"></path><path d="M88.4424 9.05469L82.4814 19.3782" stroke="#161511" stroke-width="2" stroke-miterlimit="10"></path><path d="M59.3862 107.151C85.7667 107.151 107.152 85.7658 107.152 59.3853C107.152 33.0048 85.7667 11.6191 59.3862 11.6191C33.0057 11.6191 11.6201 33.0048 11.6201 59.3853C11.6201 85.7658 33.0057 107.151 59.3862 107.151Z" fill="#F0EF5D" stroke="#161511" stroke-width="2" stroke-miterlimit="10"></path><path d="M59.3857 99.2733C81.415 99.2733 99.2733 81.415 99.2733 59.3857C99.2733 37.3563 81.415 19.498 59.3857 19.498C37.3563 19.498 19.498 37.3563 19.498 59.3857C19.498 81.415 37.3563 99.2733 59.3857 99.2733Z" fill="#EADAEF" stroke="#161511" stroke-width="2" stroke-miterlimit="10"></path><circle cx="44.9767" cy="41.131" r="2.98254" fill="#161511"></circle><circle cx="73.0607" cy="41.131" r="2.98254" fill="#161511"></circle><path d="M34.2266 50.0996C41.4227 53.7069 61.4163 58.7571 83.8215 50.0996" stroke="#161511" stroke-width="2"></path></svg>